<svg version="1.0" id="a6d033c8-6236-4b6b-86d5-1150258abf47" xmlns="http://www.w3.org/2000/svg" x="0" y="0" xml:space="preserve" viewBox="359.21 6.29 67.07 68.05">
    <switch>
        <g>
            <path d="M371.792 24.547a4.432 4.432 0 013.032-8.33 9.256 9.256 0 10-6.332 17.397l45.483 16.554-39.151 14.25a9.256 9.256 0 11-6.332-17.396c-7.308 2.66-11.075 10.74-8.416 18.048 2.66 7.307 10.74 11.075 18.048 8.415l42.715-15.547a8.269 8.269 0 000-15.54l-49.047-17.851z" fill="#018374"></path>
            <path d="M413.975 30.468l-39.151-14.25a9.256 9.256 0 10-6.332 17.396c-7.31-2.652-11.087-10.728-8.436-18.038 2.652-7.31 10.728-11.088 18.038-8.436l.03.01 42.715 15.548a8.269 8.269 0 010 15.54l-49.047 17.851a4.432 4.432 0 003.032 8.33 9.256 9.256 0 11-6.332-17.397l45.483-16.554" fill="#02bc94"></path>
        </g>
    </switch>
</svg>